<!-- Generator: Adobe Illustrator 20.1.0, SVG Export Plug-In  -->
<svg version="1.1"
	 xmlns="http://www.w3.org/2000/svg" xmlns:xlink="http://www.w3.org/1999/xlink" xmlns:a="http://ns.adobe.com/AdobeSVGViewerExtensions/3.0/"
	 x="0px" y="0px" width="411.034px" height="210.8px" viewBox="0 0 411.034 210.8"
	 style="enable-background:new 0 0 411.034 210.8;" xml:space="preserve">
<style type="text/css">
	.st0{fill:url(#SVGID_1_);}
	.st1{fill:url(#SVGID_2_);}
	.st2{fill:url(#SVGID_3_);}
	.st3{fill:#F6D599;}
	.st4{fill:#F0C26B;}
	.st5{fill:#EAAB33;}
	.st6{fill:url(#SVGID_4_);}
	.st7{fill:url(#SVGID_5_);}
	.st8{fill:url(#SVGID_6_);}
</style>
<defs>
</defs>
<g>
	<g>
		<g>
			<g>
				<g>
					<path d="M0,95.657h212.563c0,0-68.177-58.406-77.947-66.874s-15.586-13.896-28.202-13.896s-19.09,6.514-28.989,14.981
						S0,95.657,0,95.657z"/>
					<linearGradient id="SVGID_1_" gradientUnits="userSpaceOnUse" x1="106.2817" y1="17.2754" x2="106.2817" y2="93.2684">
						<stop  offset="0" style="stop-color:#D4E8BB"/>
						<stop  offset="1" style="stop-color:#99CB5A"/>
					</linearGradient>
					<path class="st0" d="M6.285,93.268h199.992c0,0-64.145-54.952-73.337-62.919c-9.193-7.967-14.664-13.074-26.535-13.074
						s-17.961,6.128-27.275,14.095S6.285,93.268,6.285,93.268z"/>
				</g>
				<g>
					<path d="M198.471,95.657h212.563c0,0-68.177-58.406-77.947-66.874s-15.586-13.896-28.202-13.896s-19.09,6.514-28.989,14.981
						C265.996,38.336,198.471,95.657,198.471,95.657z"/>
					<linearGradient id="SVGID_2_" gradientUnits="userSpaceOnUse" x1="304.7524" y1="17.2754" x2="304.7524" y2="93.2684">
						<stop  offset="0" style="stop-color:#D4E8BB"/>
						<stop  offset="1" style="stop-color:#99CB5A"/>
					</linearGradient>
					<path class="st1" d="M204.756,93.268h199.992c0,0-64.145-54.952-73.337-62.919c-9.193-7.967-14.664-13.074-26.535-13.074
						s-17.961,6.128-27.275,14.095C268.288,39.338,204.756,93.268,204.756,93.268z"/>
				</g>
			</g>
			<g>
				<path d="M41.667,124H368c0,0-104.667-89.667-119.667-102.667C233.333,8.333,224.406,0,205.036,0s-29.307,10-44.505,23
					S41.667,124,41.667,124z"/>
				<linearGradient id="SVGID_3_" gradientUnits="userSpaceOnUse" x1="204.8333" y1="3.6667" x2="204.8333" y2="120.3333">
					<stop  offset="0" style="stop-color:#D4E8BB"/>
					<stop  offset="1" style="stop-color:#99CB5A"/>
				</linearGradient>
				<path class="st2" d="M51.316,120.333H358.35c0,0-98.477-84.364-112.59-96.595c-14.113-12.231-22.512-20.072-40.737-20.072
					s-27.574,9.409-41.873,21.64C148.852,37.538,51.316,120.333,51.316,120.333z"/>
			</g>
		</g>
		<g>
			<polygon points="33.417,131.5 130.417,131.5 130.417,127.75 37.917,127.75 			"/>
			<polygon points="25.042,138.75 130.417,138.75 130.417,136 28.542,136 			"/>
			<polygon points="19.167,143.875 130.417,143.875 130.417,141.963 21.667,141.963 			"/>
		</g>
		<g>
			<g>
				<g>
					<path d="M234.413,168.456c0,0,14.569-6.72,15.197-21.435c0.628-14.715-13.569-21.947-20.304-26.355
						c-6.736-4.407-39.59-28.514-28.609-52.73c0,0,26.379,41.099,63.354,41.233c36.975,0.134,69.789-27,87.651-53.083
						c0,0-5.179,38.804-41.204,70.272S256.699,163.8,234.413,168.456z"/>
					<path class="st3" d="M201.218,72.412c0,0,22.246,38.911,65.368,40.148c43.122,1.238,78.156-42.12,83.017-51.442
						c0,0-22.779,72.665-107.486,104.248c0,0,13.589-8.917,8.351-25.966c-5.238-17.049-25.319-22.994-38.717-37.216
						S199.857,76.475,201.218,72.412z"/>
				</g>
				<g>
					<circle cx="264.545" cy="81.328" r="22.927"/>
					<circle class="st3" cx="264.053" cy="80.836" r="19.148"/>
				</g>
			</g>
			<g>
				<g>
					<path d="M182.811,178.273c0,0,16.347-7.54,17.051-24.05s-15.224-24.624-22.781-29.569s-44.419-31.992-32.099-59.162
						c0,0,29.597,46.112,71.082,46.262s78.301-30.294,98.342-59.557c0,0-5.81,43.537-46.23,78.844S207.815,173.049,182.811,178.273z
						"/>
					<path class="st4" d="M145.567,70.514c0,0,24.96,43.657,73.342,45.045s87.689-47.258,93.143-57.716
						c0,0-25.558,81.528-120.597,116.964c0,0,15.247-10.005,9.37-29.133s-28.407-25.799-43.439-41.755
						C142.354,87.963,144.04,75.073,145.567,70.514z"/>
				</g>
				<g>
					<circle cx="213.147" cy="74.476" r="26.029"/>
					<circle class="st4" cx="212.589" cy="73.918" r="21.739"/>
				</g>
			</g>
			<g>
				<g>
					<path d="M103.528,163.415c0,0,17.75-3,22.75-18.75s-8.25-27.75-14.25-34.5s-34.5-42.5-15.5-65.5c0,0,16.5,52.25,56.5,63.25
						s83.5-8.75,110.5-31.75c0,0-17,40.5-65.25,64S129.028,164.915,103.528,163.415z"/>
					<path class="st5" d="M95.778,49.665c0,0,12.667,48.667,59,62.667s97-22.667,105-31.333c0,0-46,72-147,81.333
						c0,0,17.333-5.667,16.667-25.667s-20.667-32.333-31-51.667S93.112,53.665,95.778,49.665z"/>
				</g>
				<g>
					<circle cx="161.09" cy="78.226" r="26.029"/>
					<circle class="st5" cx="160.531" cy="77.668" r="21.739"/>
				</g>
			</g>
		</g>
	</g>
	<g>
		<path d="M28.611,210.427v-27.249h4.455v23.428h11.537v3.821H28.611z"/>
		<path d="M57.836,210.8c-3.206,0-5.713-0.936-7.521-2.806c-1.808-1.87-2.712-4.445-2.712-7.726c0-3.367,0.839-6.014,2.517-7.939
			c1.677-1.926,3.982-2.889,6.915-2.889c2.721,0,4.871,0.826,6.449,2.479c1.578,1.652,2.367,3.927,2.367,6.821v2.367H52.114
			c0.062,2.001,0.603,3.538,1.622,4.613c1.019,1.075,2.454,1.612,4.305,1.612c1.218,0,2.352-0.115,3.402-0.345
			c1.05-0.23,2.177-0.612,3.383-1.146v3.56c-1.069,0.51-2.15,0.87-3.243,1.081C60.489,210.694,59.24,210.8,57.836,210.8z
			 M57.035,192.758c-1.392,0-2.507,0.441-3.346,1.323c-0.838,0.882-1.339,2.168-1.5,3.858h9.356
			c-0.025-1.702-0.435-2.992-1.23-3.868S58.426,192.758,57.035,192.758z"/>
		<path d="M84.675,204.556c0,2.013-0.733,3.557-2.199,4.632c-1.466,1.075-3.566,1.612-6.3,1.612c-2.746,0-4.952-0.416-6.617-1.249
			v-3.783c2.423,1.118,4.678,1.677,6.766,1.677c2.696,0,4.044-0.813,4.044-2.441c0-0.521-0.149-0.957-0.447-1.305
			c-0.298-0.348-0.789-0.708-1.472-1.081c-0.684-0.373-1.634-0.795-2.852-1.268c-2.374-0.919-3.979-1.839-4.818-2.758
			c-0.838-0.92-1.258-2.112-1.258-3.579c0-1.764,0.711-3.134,2.134-4.109s3.358-1.463,5.806-1.463c2.423,0,4.715,0.49,6.877,1.472
			l-1.417,3.299c-2.225-0.919-4.094-1.379-5.61-1.379c-2.311,0-3.466,0.659-3.466,1.976c0,0.646,0.301,1.193,0.904,1.641
			c0.603,0.447,1.917,1.062,3.942,1.845c1.702,0.659,2.938,1.262,3.709,1.809s1.342,1.177,1.715,1.892
			C84.489,202.708,84.675,203.562,84.675,204.556z"/>
		<path d="M115.205,210.427H99.791v-27.249h15.414v3.765h-10.959v7.418h10.27v3.728h-10.27v8.556h10.959V210.427z"/>
		<path d="M138.764,210.427h-4.398v-12.674c0-1.591-0.32-2.777-0.96-3.561c-0.64-0.782-1.656-1.174-3.047-1.174
			c-1.852,0-3.206,0.547-4.063,1.641c-0.857,1.093-1.286,2.926-1.286,5.498v10.27h-4.38v-20.614h3.429l0.615,2.703h0.224
			c0.621-0.981,1.503-1.74,2.646-2.274s2.411-0.801,3.802-0.801c4.945,0,7.418,2.516,7.418,7.548V210.427z"/>
		<path d="M155.203,193.131h-5.032v17.296h-4.399v-17.296h-3.392v-2.051l3.392-1.342v-1.342c0-2.436,0.571-4.24,1.715-5.415
			c1.143-1.174,2.889-1.761,5.237-1.761c1.541,0,3.057,0.254,4.548,0.764l-1.156,3.317c-1.081-0.348-2.112-0.521-3.094-0.521
			c-0.994,0-1.718,0.308-2.171,0.923c-0.454,0.614-0.68,1.537-0.68,2.768v1.342h5.032V193.131z"/>
		<path d="M171.605,210.427l-0.876-2.87h-0.149c-0.994,1.255-1.994,2.109-3.001,2.562c-1.006,0.453-2.299,0.681-3.876,0.681
			c-2.025,0-3.606-0.547-4.744-1.641c-1.137-1.093-1.706-2.64-1.706-4.641c0-2.125,0.789-3.728,2.367-4.809s3.982-1.671,7.213-1.771
			l3.56-0.112v-1.1c0-1.316-0.308-2.302-0.923-2.954c-0.614-0.652-1.568-0.979-2.86-0.979c-1.057,0-2.069,0.155-3.039,0.466
			c-0.969,0.311-1.901,0.678-2.795,1.1l-1.417-3.131c1.118-0.584,2.342-1.028,3.672-1.333c1.329-0.304,2.584-0.456,3.765-0.456
			c2.621,0,4.6,0.571,5.936,1.714c1.336,1.144,2.004,2.939,2.004,5.387v13.886H171.605z M165.081,207.445
			c1.59,0,2.868-0.443,3.831-1.332s1.444-2.135,1.444-3.737v-1.789l-2.646,0.111c-2.063,0.075-3.563,0.42-4.501,1.035
			c-0.938,0.614-1.407,1.556-1.407,2.823c0,0.92,0.273,1.631,0.82,2.134C163.168,207.194,163.988,207.445,165.081,207.445z"/>
		<path d="M198.985,210.427h-4.398v-12.674c0-1.591-0.32-2.777-0.96-3.561c-0.641-0.782-1.656-1.174-3.048-1.174
			c-1.852,0-3.206,0.547-4.063,1.641c-0.857,1.093-1.285,2.926-1.285,5.498v10.27h-4.381v-20.614h3.43l0.615,2.703h0.224
			c0.621-0.981,1.503-1.74,2.646-2.274s2.41-0.801,3.803-0.801c4.945,0,7.418,2.516,7.418,7.548V210.427z"/>
		<path d="M212.758,207.258c1.068,0,2.137-0.167,3.205-0.503v3.299c-0.484,0.212-1.108,0.389-1.873,0.531
			c-0.764,0.143-1.556,0.215-2.376,0.215c-4.15,0-6.226-2.188-6.226-6.561v-11.108h-2.814v-1.938l3.02-1.604l1.491-4.361h2.702
			v4.585h5.871v3.318h-5.871v11.033c0,1.057,0.265,1.836,0.793,2.339C211.208,207.007,211.901,207.258,212.758,207.258z"/>
		<path d="M233.931,204.556c0,2.013-0.733,3.557-2.199,4.632c-1.467,1.075-3.566,1.612-6.3,1.612c-2.746,0-4.952-0.416-6.616-1.249
			v-3.783c2.423,1.118,4.678,1.677,6.766,1.677c2.696,0,4.044-0.813,4.044-2.441c0-0.521-0.148-0.957-0.447-1.305
			c-0.298-0.348-0.789-0.708-1.473-1.081c-0.683-0.373-1.634-0.795-2.852-1.268c-2.373-0.919-3.979-1.839-4.817-2.758
			c-0.839-0.92-1.259-2.112-1.259-3.579c0-1.764,0.712-3.134,2.135-4.109c1.422-0.976,3.357-1.463,5.806-1.463
			c2.423,0,4.716,0.49,6.877,1.472l-1.416,3.299c-2.225-0.919-4.095-1.379-5.61-1.379c-2.311,0-3.467,0.659-3.467,1.976
			c0,0.646,0.302,1.193,0.904,1.641s1.916,1.062,3.942,1.845c1.702,0.659,2.938,1.262,3.709,1.809
			c0.77,0.547,1.342,1.177,1.714,1.892C233.745,202.708,233.931,203.562,233.931,204.556z"/>
		<path d="M255.533,210.8c-2.571,0-4.578-0.933-6.02-2.796c-1.441-1.864-2.162-4.479-2.162-7.847c0-3.38,0.729-6.011,2.189-7.894
			s3.482-2.823,6.067-2.823c2.708,0,4.771,1,6.188,3h0.224c-0.211-1.479-0.316-2.646-0.316-3.504v-7.512h4.398v29.002h-3.43
			l-0.764-2.702h-0.205C260.298,209.775,258.242,210.8,255.533,210.8z M256.708,207.258c1.801,0,3.112-0.506,3.933-1.519
			s1.242-2.656,1.268-4.93v-0.615c0-2.597-0.423-4.442-1.268-5.535c-0.846-1.094-2.169-1.641-3.97-1.641
			c-1.541,0-2.729,0.624-3.561,1.873s-1.249,3.029-1.249,5.34c0,2.286,0.404,4.029,1.212,5.229S255.092,207.258,256.708,207.258z"/>
		<path d="M281.366,210.8c-3.206,0-5.713-0.936-7.521-2.806c-1.809-1.87-2.712-4.445-2.712-7.726c0-3.367,0.839-6.014,2.516-7.939
			c1.678-1.926,3.982-2.889,6.915-2.889c2.722,0,4.871,0.826,6.449,2.479c1.577,1.652,2.367,3.927,2.367,6.821v2.367h-13.737
			c0.062,2.001,0.603,3.538,1.622,4.613c1.019,1.075,2.454,1.612,4.306,1.612c1.218,0,2.351-0.115,3.401-0.345
			c1.05-0.23,2.178-0.612,3.383-1.146v3.56c-1.069,0.51-2.15,0.87-3.243,1.081C284.018,210.694,282.769,210.8,281.366,210.8z
			 M280.564,192.758c-1.392,0-2.507,0.441-3.346,1.323s-1.339,2.168-1.5,3.858h9.356c-0.025-1.702-0.436-2.992-1.23-3.868
			S281.956,192.758,280.564,192.758z"/>
		<path d="M326.899,196.542c0,4.498-1.248,7.938-3.746,10.316c-2.497,2.38-6.095,3.569-10.791,3.569h-7.623v-27.249h8.424
			c4.337,0,7.71,1.168,10.121,3.504C325.694,189.018,326.899,192.304,326.899,196.542z M322.203,196.691
			c0-6.523-3.051-9.785-9.151-9.785h-3.858v19.775h3.169C318.922,206.681,322.203,203.351,322.203,196.691z"/>
		<path d="M332.024,184.352c0-0.783,0.215-1.386,0.644-1.808c0.429-0.423,1.04-0.634,1.836-0.634c0.77,0,1.369,0.211,1.798,0.634
			c0.429,0.422,0.644,1.024,0.644,1.808c0,0.745-0.215,1.333-0.644,1.762s-1.028,0.643-1.798,0.643
			c-0.796,0-1.407-0.214-1.836-0.643S332.024,185.097,332.024,184.352z M336.666,210.427h-4.381v-20.614h4.381V210.427z"/>
		<path d="M351.93,210.8c-3.206,0-5.713-0.936-7.521-2.806c-1.809-1.87-2.712-4.445-2.712-7.726c0-3.367,0.839-6.014,2.516-7.939
			c1.678-1.926,3.982-2.889,6.915-2.889c2.722,0,4.871,0.826,6.449,2.479c1.577,1.652,2.367,3.927,2.367,6.821v2.367h-13.737
			c0.062,2.001,0.603,3.538,1.622,4.613c1.019,1.075,2.454,1.612,4.306,1.612c1.218,0,2.351-0.115,3.401-0.345
			c1.05-0.23,2.178-0.612,3.383-1.146v3.56c-1.069,0.51-2.15,0.87-3.243,1.081C354.583,210.694,353.334,210.8,351.93,210.8z
			 M351.128,192.758c-1.392,0-2.507,0.441-3.346,1.323s-1.339,2.168-1.5,3.858h9.356c-0.025-1.702-0.436-2.992-1.23-3.868
			S352.52,192.758,351.128,192.758z"/>
		<path d="M379.459,210.427l-0.615-2.702h-0.224c-0.608,0.957-1.476,1.708-2.6,2.255c-1.125,0.547-2.407,0.82-3.849,0.82
			c-2.498,0-4.361-0.621-5.592-1.864c-1.23-1.242-1.845-3.125-1.845-5.647v-13.476h4.417v12.712c0,1.578,0.323,2.762,0.969,3.551
			c0.646,0.789,1.659,1.183,3.038,1.183c1.839,0,3.19-0.55,4.054-1.649c0.864-1.1,1.296-2.941,1.296-5.526v-10.27h4.398v20.614
			H379.459z"/>
	</g>
</g>
</svg>